<mxfile host="app.diagrams.net" modified="2023-04-28T06:58:35.053Z" agent="Mozilla/5.0 (Macintosh; Intel Mac OS X 10_15_7) AppleWebKit/537.36 (KHTML, like Gecko) Chrome/112.0.0.0 Safari/537.36" etag="Y-KwS-iPjSehFsGb-s8U" version="21.1.1" type="device">
  <diagram id="GxyxlznmTocM9lX4iMIi" name="Page-1">
    <mxGraphModel dx="1026" dy="660" grid="1" gridSize="10" guides="1" tooltips="1" connect="1" arrows="1" fold="1" page="1" pageScale="1" pageWidth="827" pageHeight="1169" math="0" shadow="0">
      <root>
        <mxCell id="0" />
        <mxCell id="1" parent="0" />
        <mxCell id="B-X4R5AWPxMzXD-QTe5f-1" value="&lt;div style=&quot;box-sizing: border-box ; width: 100% ; padding: 2px&quot;&gt;&lt;br&gt;&lt;/div&gt;" style="verticalAlign=top;align=center;overflow=fill;html=1;rounded=0;shadow=0;comic=0;labelBackgroundColor=none;strokeColor=#000000;strokeWidth=1;fillColor=#ffffff;fontFamily=Verdana;fontSize=12;fontColor=#000000;" parent="1" vertex="1">
          <mxGeometry x="40" y="40" width="200" height="60" as="geometry" />
        </mxCell>
        <mxCell id="B-X4R5AWPxMzXD-QTe5f-2" value="Accounts" style="rounded=0;whiteSpace=wrap;html=1;" parent="1" vertex="1">
          <mxGeometry x="40" y="40" width="200" height="20" as="geometry" />
        </mxCell>
        <mxCell id="B-X4R5AWPxMzXD-QTe5f-3" value="&lt;u&gt;Adresse email&lt;/u&gt;&lt;br&gt;Mot de passe" style="text;html=1;strokeColor=none;fillColor=none;align=left;verticalAlign=top;whiteSpace=wrap;rounded=0;" parent="1" vertex="1">
          <mxGeometry x="41" y="60" width="129" height="40" as="geometry" />
        </mxCell>
        <mxCell id="B-X4R5AWPxMzXD-QTe5f-4" value="Texte&lt;br&gt;Texte" style="text;html=1;strokeColor=none;fillColor=none;align=left;verticalAlign=top;whiteSpace=wrap;rounded=0;" parent="1" vertex="1">
          <mxGeometry x="170" y="60" width="70" height="40" as="geometry" />
        </mxCell>
        <mxCell id="B-X4R5AWPxMzXD-QTe5f-11" value="&lt;table border=&quot;1&quot; width=&quot;100%&quot; style=&quot;width: 100% ; height: 100% ; border-collapse: collapse&quot;&gt;&lt;tbody&gt;&lt;tr&gt;&lt;td align=&quot;center&quot;&gt;Projet&lt;/td&gt;&lt;td align=&quot;center&quot;&gt;BudgetPlanner&lt;/td&gt;&lt;/tr&gt;&lt;tr&gt;&lt;td align=&quot;center&quot;&gt;Titre&lt;/td&gt;&lt;td align=&quot;center&quot;&gt;MCD Base de donnÃ©e&lt;/td&gt;&lt;/tr&gt;&lt;tr&gt;&lt;td align=&quot;center&quot;&gt;Auteur&lt;/td&gt;&lt;td align=&quot;center&quot;&gt;Antoine Roulin&lt;/td&gt;&lt;/tr&gt;&lt;tr&gt;&lt;td style=&quot;text-align: center&quot;&gt;Version&lt;/td&gt;&lt;td style=&quot;text-align: center&quot;&gt;v0.2, 28.04.2023&lt;/td&gt;&lt;/tr&gt;&lt;/tbody&gt;&lt;/table&gt;" style="text;html=1;overflow=fill;labelBackgroundColor=#FFD966;" parent="1" vertex="1">
          <mxGeometry x="40" y="160" width="239" height="140" as="geometry" />
        </mxCell>
      </root>
    </mxGraphModel>
  </diagram>
</mxfile>
